<svg width="24.999999999999996" height="24.999999999999996" xmlns="http://www.w3.org/2000/svg" version="1.0" preserveAspectRatio="xMidYMid meet">
 <g id="Layer_1">
  <title>Layer 1</title>
  <path id="svg_1" d="m16,4.58334" opacity="NaN" stroke="#000" fill="#fff"/>
  <path stroke="#000" id="svg_2" d="m20.75,5.29043l-7.69956,7.21001l7.69956,7.21l-4.40022,4.1229l-12.09977,-11.3329l12.09977,-11.33376" fill="#fff"/>
  <line id="svg_3" y2="5.75" x2="20.83333" y1="1.58334" x1="16" stroke="#000" fill="none"/>
  <path d="m14.99997,4.41643c0,0.08333 -0.3108,0.43573 -0.66666,0.83332c-0.31439,0.35125 -0.53094,0.64555 -0.74999,0.99999c-0.09796,0.15851 -0.29052,0.40197 -0.33333,0.58333c-0.01915,0.0811 -0.1086,0.31411 -0.16666,0.41666c-0.16928,0.29899 -0.26585,0.57345 -0.41666,0.83332c-0.09353,0.16116 -0.19479,0.27583 -0.33333,0.49999c-0.06196,0.10025 -0.16666,0.33333 -0.25,0.41666c-0.08333,0.08333 0.1024,0.02253 0.49999,-0.33333c0.61469,-0.55017 1.26314,-1.06297 1.91664,-1.49998c0.59589,-0.39849 1.07403,-0.8495 1.49998,-1.08332c0.49003,-0.269 0.94249,-0.52812 1.16665,-0.66666c0.2005,-0.12391 0.28948,-0.1438 0.08333,0.16666c-0.84995,1.28009 -1.60206,1.71999 -2.41663,2.24997c-2.30609,1.5004 -3.74425,2.61657 -4.49994,2.83329c-0.0801,0.02297 -0.13176,0.13176 0,0c0.13176,-0.13176 0.25,-0.25 0.66666,-0.49999c0.83332,-0.49999 1.46815,-0.88689 1.99997,-1.16665c0.39716,-0.20892 0.70489,-0.30778 0.74999,-0.41666c0.03189,-0.07699 -0.11557,-0.24313 -0.33333,-0.33333c-0.07699,-0.03189 -0.19107,-0.14226 -0.25,-0.08333c-0.05892,0.05892 0.20194,0.04765 0.66666,-0.33333c0.45569,-0.37358 0.68216,-0.64104 0.83332,-0.74999c0.0956,-0.06891 0.09776,-0.15439 0.16667,-0.25c0.10895,-0.15116 0.14284,-0.1843 0.33333,-0.41666c0.07471,-0.09114 0.27583,-0.19479 0.49999,-0.33333c0.2005,-0.12391 0.25,-0.25 0.33333,-0.25c0.08333,0 0.16667,0 0.33333,0c0.25,0 0.66149,0.12486 1.16665,0.16666c0.58134,0.04811 0.91665,0 0.99998,0c0.08333,0 0.17301,0.03189 0.25,0c0.10888,-0.0451 0.25,-0.16666 0.33333,-0.25c0.08333,-0.08333 0.17301,-0.13477 0.25,-0.16666c0.10888,-0.0451 0.10774,-0.10774 0.16666,-0.16666c0.05893,-0.05893 0.05521,-0.1925 -0.08333,-0.41666c-0.06196,-0.10025 -0.08333,-0.16666 -0.16666,-0.25c-0.08333,-0.08333 -0.10774,-0.10774 -0.16666,-0.16666c-0.05892,-0.05892 -0.08333,-0.08333 -0.16666,-0.16666c-0.08333,-0.08333 -0.19107,-0.10774 -0.25,-0.16666c-0.05892,-0.05892 -0.10774,-0.10774 -0.16667,-0.16666c-0.05893,-0.05892 -0.09776,-0.15439 -0.16666,-0.25c-0.10895,-0.15116 -0.21811,-0.17301 -0.25,-0.25c-0.0451,-0.10888 -0.15439,-0.18109 -0.25,-0.25c-0.15116,-0.10895 -0.22445,-0.2049 -0.33333,-0.25c-0.07699,-0.03189 -0.07106,-0.09776 -0.16666,-0.16666c-0.15117,-0.10895 -0.25634,-0.13477 -0.33333,-0.16666c-0.10888,-0.0451 -0.16666,-0.08333 -0.25,-0.16666c-0.08333,-0.08333 -0.18217,-0.05771 -0.33333,-0.16666c-0.0956,-0.06891 -0.19107,-0.02441 -0.25,-0.08333c-0.05892,-0.05892 -0.08968,-0.11522 -0.16667,-0.08333c-0.10888,0.0451 -0.45132,0.48008 -0.58333,0.74999c-0.11578,0.23672 -0.20718,0.31864 -0.25,0.49999c-0.01915,0.0811 -0.02441,0.10774 -0.08333,0.16666c-0.05892,0.05892 -0.23308,0.18804 -0.33333,0.25c-0.22416,0.13854 -0.35295,0.14465 -0.91665,0.66666c-0.34588,0.32029 -0.56032,0.60189 -0.83332,0.91665c-0.23165,0.26709 -0.4772,0.52446 -0.83332,0.83332c-0.31477,0.273 -0.66666,0.49999 -0.91665,0.74999c-0.25,0.25 -0.44141,0.55115 -0.66666,0.74999c-0.13969,0.12332 -0.26442,0.15439 -0.33333,0.25c-0.10895,0.15116 -0.16667,0.25 -0.25,0.41666c-0.08333,0.16667 -0.07314,0.2555 -0.16666,0.41666c-0.15081,0.25987 -0.28607,0.65019 -0.49999,1.16665c-0.10084,0.24346 -0.10774,0.35774 -0.16666,0.41666c-0.05892,0.05892 -0.02441,0.10774 -0.08333,0.16667c-0.05892,0.05892 -0.08333,0.16666 -0.16666,0.25c-0.08333,0.08333 -0.16667,0.16667 -0.49999,0.41666c-0.33333,0.25 -0.74318,0.50934 -1.08332,0.74999c-0.24528,0.17354 -0.32784,0.48797 -0.49999,0.41666c-0.24346,-0.10084 0.59178,-1.07514 0.83332,-1.33331c0.60519,-0.64688 1.41156,-1.42325 2.16664,-1.99997c0.66225,-0.50582 1.2422,-0.92864 1.74998,-1.24998c0.41059,-0.25984 0.83332,-0.58333 1.16665,-0.83332c0.33333,-0.25 0.58333,-0.49999 0.66666,-0.66666c0.08333,-0.16666 0.20157,-0.2849 0.33333,-0.41666c0.13176,-0.13176 0.16118,-0.26202 0.33333,-0.33333c0.24346,-0.10084 0.59092,-0.23297 1.16665,-0.49999c0.50712,-0.2352 0.9681,-0.66031 0.99999,-0.58333c0.0451,0.10888 -0.41666,0.41666 -0.83332,0.74999c-0.83332,0.66666 -1.87061,1.44657 -3.08329,2.3333c-0.86144,0.6299 -1.8945,1.43982 -2.41663,1.91664c-0.4806,0.43889 -0.94112,0.81053 -1.24998,1.16665c-0.273,0.31477 -0.49313,0.53223 -0.58333,0.74999c-0.03189,0.07699 -0.096,0.07669 0.08333,-0.25c0.23382,-0.42595 0.72187,-1.03674 1.58331,-1.66664c0.72761,-0.53204 1.65303,-1.10201 2.3333,-1.58331c0.49055,-0.34707 0.93429,-0.64283 1.16665,-0.83332c0.09114,-0.07472 0.17391,-0.16284 0.08333,0c-0.61836,1.1116 -1.01419,1.56987 -1.24998,1.83331c-0.35586,0.39759 -0.58333,0.58333 -0.58333,0.41666c0,-0.16667 0.0239,-0.94208 0.33333,-1.58331c0.42235,-0.87524 1.04307,-1.46095 1.41665,-1.91664c0.19049,-0.23236 0.19107,-0.39225 0.25,-0.33333c0.05892,0.05892 -0.077,0.25332 -0.16666,0.41666c-0.23382,0.42595 -0.78768,0.87118 -1.49998,1.49998c-0.3534,0.31197 -0.49999,0.58333 -0.66666,0.74999c-0.08333,0.08333 -0.08333,0.16666 -0.08333,0.33333c0,0.08333 0.04135,0.32564 0.08333,0.66666c0.04073,0.33083 0,0.74999 0,1.24998c0,0.58333 0.08333,0.99999 0.08333,1.16665c0,0.08333 0.02405,0.01098 0.16666,-0.33333c0.10084,-0.24346 0.14553,-0.34676 0.41666,-0.74999c0.23249,-0.34577 0.47617,-0.6843 0.66666,-0.91665c0.29886,-0.36455 0.58939,-0.57348 0.99999,-0.83332c0.50778,-0.32134 0.97803,-0.54809 1.66664,-0.83332c0.48692,-0.20169 0.92973,-0.38164 1.41665,-0.58332c0.34431,-0.14262 0.65679,-0.34919 0.91665,-0.49999c0.32233,-0.18705 0.60096,-0.30951 0.83332,-0.49999c0.09114,-0.07472 0.15332,-0.16774 0.16666,-0.25c0.04221,-0.26012 0.14077,-0.42335 0.08333,-0.66666c-0.04281,-0.18135 -0.1989,-0.4098 -0.41666,-0.49999c-0.15398,-0.06378 -0.19107,-0.02441 -0.25,-0.08333c-0.05892,-0.05892 -0.05879,-0.11218 -0.25,-0.25c-0.15116,-0.10895 -0.48987,-0.37445 -0.74999,-0.41666c-0.08226,-0.01335 -0.14112,-0.12157 -0.25,-0.16666c-0.07699,-0.03189 -0.25,-0.16666 -0.33333,-0.25c-0.08333,-0.08333 -0.16666,-0.16666 -0.25,-0.25c-0.08333,-0.08333 -0.16667,-0.16666 -0.08333,-0.16666c0.25,0 0.39111,0.03823 0.49999,0.08333c0.07699,0.03189 0.14752,0.00223 0.16666,0.08333c0.04281,0.18135 0.16666,0.25 0.25,0.33333c0.08333,0.08333 0.19107,0.22559 0.25,0.16666c0.05893,-0.05892 0,-0.25 0,-0.33333c0,-0.08333 0.03383,-0.29275 -0.16666,-0.41666c-0.22416,-0.13854 -0.2744,-0.10774 -0.33333,-0.16666c-0.05892,-0.05892 -0.15439,-0.01442 -0.25,-0.08333c-0.30233,-0.21791 -0.64266,-0.3318 -1.08332,-0.41666c-0.08183,-0.01576 -0.16666,0 -0.16666,0.25c0,0.33333 0.03823,0.55778 0.08333,0.66666c0.03189,0.07699 -0.03189,0.17301 0,0.25c0.0451,0.10888 0.14284,0.26764 0.33333,0.49999c0.07472,0.09114 0.10774,0.2744 0.16666,0.33333c0.05892,0.05892 0.05144,0.08968 0.08333,0.16666c0.0451,0.10888 0.2049,0.05779 0.25,0.16666c0.03189,0.07699 0.08333,0.08333 0.16666,0.08333c0.08333,0 0.41666,0.08333 0.83332,0.08333c0.41666,0 0.58333,0 0.66666,0c0.08333,0 0.12385,0.06864 0.16666,0.25c0.03829,0.16221 0.05744,0.75668 0,0.99999c-0.04281,0.18135 -0.10774,0.2744 -0.16666,0.33333c-0.05892,0.05892 -0.10774,0.02441 -0.16666,0.08333c-0.05892,0.05892 -0.08333,0.08333 -0.08333,0c0,-0.16666 0.12385,-0.15198 0.16666,-0.33333c0.03829,-0.16221 0.08333,-0.25 0.08333,-0.33333c0,-0.08333 0.02441,-0.10774 0.08333,-0.16666c0.05892,-0.05892 0,-0.16666 0,-0.25c0,-0.08333 0,-0.16666 0,-0.25c0,-0.08333 0,-0.16666 0,-0.25c0,-0.08333 0,-0.16666 0,-0.25c0,-0.08333 0,-0.16666 0,-0.25c0,-0.08333 0,-0.16666 0,-0.25c0,-0.08333 0,-0.16666 0,-0.25l0,-0.08333l0,-0.08333" id="svg_4" stroke="#000" fill="none"/>
  <path d="m11.66668,8.9997c0,0.08333 -0.22438,0.34883 -0.33333,0.49999c-0.13782,0.19121 -0.30892,0.35774 -0.25,0.41666c0.05892,0.05892 0.59402,0.11895 1.24998,0c0.70057,-0.12704 1.28634,-0.4533 1.83331,-0.91665c0.26976,-0.22853 0.50934,-0.57652 0.74999,-0.91665c0.17354,-0.24528 0.25,-0.49999 0.25,-0.66666c0,-0.25 0,-0.41666 0,-0.58333c0,-0.16666 0,-0.33333 0,-0.58333c0,-0.16666 0.03823,-0.30778 0.08333,-0.41666c0.06378,-0.15398 0,-0.25 0.08333,-0.33333c0.16666,-0.16666 0.28823,-0.39111 0.33333,-0.49999c0.06378,-0.15398 0.08333,-0.25 0.08333,-0.33333c0,-0.08333 0,-0.16666 0,-0.25c0,-0.08333 -0.08333,-0.16666 -0.41666,-0.33333c-0.33333,-0.16666 -0.58182,-0.26576 -0.49999,-0.25c0.44066,0.08486 1.07888,0.29156 1.66664,0.33333c0.41561,0.02954 0.66666,0 0.74999,0c0.08333,0 0.16666,0 0.25,0c0.08333,0 0.12156,0.05779 0.16666,0.16666c0.03189,0.07699 0,0.16666 0,0.33333c0,0.08333 0,0.16666 0,0.25c0,0.08333 0,0.16666 0,0.25c0,0.08333 0,0.16666 0,0.25c0,0.16666 0,0.25 0,0.33333c0,0.08333 0,0.16666 0,0.25c0,0.08333 -0.08333,0.08333 -0.08333,0.16666c0,0.16666 -0.12156,0.30778 -0.16666,0.41666c-0.06378,0.15398 -0.03823,0.22445 -0.08333,0.33333c-0.03189,0.07699 -0.08333,0.08333 -0.08333,0.16666c0,0.08333 -0.02441,0.10774 -0.08333,0.16666c-0.05892,0.05892 -0.10774,0.02441 -0.16666,0.08333c-0.05893,0.05893 -0.02441,0.10774 -0.08333,0.16666c-0.05892,0.05892 -0.10774,0.02441 -0.16666,0.08333c-0.05892,0.05892 -0.02441,0.10774 -0.08333,0.16666c-0.05892,0.05892 -0.08968,0.05144 -0.16666,0.08333c-0.10888,0.0451 -0.14112,0.2049 -0.25,0.25c-0.07699,0.03189 -0.06642,0.10471 -0.16666,0.16666c-0.22416,0.13854 -0.49999,0.25 -0.74999,0.33333c-0.25,0.08333 -0.30778,0.2049 -0.41666,0.25c-0.07699,0.03189 -0.10774,0.02441 -0.16667,0.08333c-0.05892,0.05892 -0.16666,0.16666 -0.25,0.25c-0.16666,0.16667 -0.25,0.33333 -0.33333,0.41666c-0.08333,0.08333 -0.18109,0.23772 -0.25,0.33333c-0.10895,0.15116 -0.08333,0.25 -0.16666,0.33333c-0.08333,0.08333 -0.1598,0.11557 -0.25,0.33333c-0.03189,0.07699 -0.02441,0.19107 -0.08333,0.25c-0.05892,0.05892 -0.12385,0.06864 -0.16666,0.25c-0.01915,0.0811 -0.08333,0.08333 -0.16666,0.25c-0.08333,0.16666 -0.13477,0.25634 -0.16666,0.33333c-0.0451,0.10888 -0.13237,-0.03367 0.16666,-0.41666c0.07253,-0.09289 0.14104,-0.2655 0.25,-0.41666c0.06891,-0.0956 0.16666,-0.25 0.25,-0.33333c0.08333,-0.08333 0.06864,-0.20718 0.25,-0.25c0.0811,-0.01915 0.10917,-0.02812 0.33333,-0.16666c0.2005,-0.12391 0.33987,-0.23248 0.58333,-0.33333c0.17215,-0.07131 0.22445,-0.12156 0.33333,-0.16666c0.07699,-0.03189 0.25634,-0.05144 0.33333,-0.08333c0.10888,-0.0451 0.20157,-0.20157 0.33333,-0.33333c0.13176,-0.13176 0.34775,-0.23772 0.41666,-0.33333c0.10895,-0.15116 0.14752,-0.25223 0.16666,-0.33333c0.04281,-0.18135 0.14104,-0.2655 0.25,-0.41666c0.06891,-0.0956 0.14104,-0.18217 0.25,-0.33333c0.06891,-0.0956 0.08333,-0.16666 0.16666,-0.25c0.08333,-0.08333 0.08968,-0.13478 0.16666,-0.16666c0.10888,-0.0451 0.18217,-0.14104 0.33333,-0.25c0.0956,-0.06891 0.19107,-0.10774 0.25,-0.16666c0.05892,-0.05892 0.07106,-0.09776 0.16666,-0.16666c0.15116,-0.10895 0.19107,-0.22559 0.25,-0.16666c0.11785,0.11785 -0.08333,0.33333 -0.16666,0.49999c-0.08333,0.16666 -0.16666,0.33333 -0.33333,0.49999c-0.16666,0.16666 -0.32552,0.34195 -0.41666,0.41666c-0.23236,0.19049 -0.4261,0.23625 -0.91665,0.58333c-0.34014,0.24065 -0.76099,0.4796 -1.08332,0.66666c-0.25987,0.15081 -0.43216,0.22438 -0.58333,0.33333c-0.0956,0.06891 -0.14112,0.12156 -0.25,0.16666c-0.07699,0.03189 -0.23537,0.00816 -0.33333,0.16667c-0.04381,0.07089 -0.08333,0.08333 -0.16666,0.16666c-0.08333,0.08333 -0.10774,0.19107 -0.16666,0.25c-0.05892,0.05892 -0.10774,0.02441 -0.16666,0.08333c-0.05892,0.05892 -0.05144,0.17301 -0.08333,0.25c-0.0451,0.10888 -0.20718,0.06864 -0.25,0.25c-0.01915,0.0811 0.10822,0.09824 0.25,-0.16666c0.03932,-0.07347 0.02441,-0.19107 0.08333,-0.25c0.05892,-0.05892 0.08967,-0.05144 0.16666,-0.08333c0.10888,-0.0451 0.16666,-0.08333 0.33333,-0.16666c0.16667,-0.08333 0.31864,-0.20718 0.49999,-0.25c0.0811,-0.01915 0.2744,-0.02441 0.33333,-0.08333c0.05893,-0.05893 0.08967,-0.05144 0.16666,-0.08333c0.10888,-0.0451 0.05144,-0.17301 0.08333,-0.25c0.0451,-0.10888 0.11522,-0.17301 0.08333,-0.25c-0.0451,-0.10888 -0.30778,-0.12157 -0.41666,-0.16667c-0.15398,-0.06378 -0.33333,0 -0.41666,0.08333c-0.08333,0.08333 -0.10774,0.10774 -0.16666,0.16667c-0.05893,0.05893 -0.08333,0.08333 -0.16667,0.08333c-0.08333,0 -0.06342,0.11799 -0.33333,0.25c-0.23672,0.11578 -0.50653,0.23248 -0.74999,0.33333c-0.17215,0.07131 -0.33333,0.16666 -0.41666,0.16666c-0.08333,0 -0.19107,0.02441 -0.25,0.08333c-0.05892,0.05892 -0.11218,0.05879 -0.25,0.25c-0.10895,0.15116 -0.25,0.33333 -0.41666,0.41666l0,0.08333l-0.08333,0" id="svg_5" stroke="#000" fill="none"/>
  <polyline stroke-linecap="round" id="svg_6" points="14.08331142879696,10.583013988250485 14.08331142879696,10.583013988250485 " stroke="#000" fill="none"/>
  <rect id="svg_7" height="1.33331" width="0.66666" y="13.16631" x="9.33338" stroke="#000" fill="#fff"/>
  <ellipse ry="2.74996" rx="2.49997" id="svg_8" cy="17.83291" cx="14.24998" stroke="#000" fill="#fff"/>
  <path d="m13.83331,16.91626c-0.16666,0.25 -0.51617,0.7407 -0.74999,1.16665c-0.17933,0.32669 -0.16666,0.58332 -0.16666,0.66666c0,0.16666 0,0.25 0,0.33333c0,0.08333 0.05779,0.12156 0.16666,0.16666c0.07699,0.03189 0.17301,0.03189 0.25,0c0.10888,-0.0451 0.18109,-0.15439 0.25,-0.25c0.10895,-0.15117 0.33333,-0.33333 0.41666,-0.49999c0.08333,-0.16666 0.16667,-0.49999 0.25,-0.66666c0.08333,-0.16667 0.12385,-0.31864 0.16666,-0.49999c0.05744,-0.24331 0.0267,-0.33548 0,-0.49999c-0.04221,-0.26012 -0.30107,-0.56404 -0.74999,-0.74999c-0.31743,-0.13148 -0.58333,-0.25 -0.66666,-0.25c-0.08333,0 -0.16666,0.08333 -0.16666,0.25c0,0.16666 -0.05744,0.34002 0,0.58333c0.04281,0.18135 0.18251,0.61612 0.83332,0.91665c0.31193,0.14405 0.83332,0.16667 1.08332,0.16667c0.33333,0 0.58333,-0.16667 0.74999,-0.33333c0.08333,-0.08333 0.16667,-0.25 0.16667,-0.33333c0,-0.16666 0.05664,-0.25215 0.08333,-0.41666c0.04221,-0.26012 0.08333,-0.41666 0.16666,-0.41666c0.25,0 0.2849,0.11824 0.41666,0.25c0.13176,0.13176 0.16666,0.16666 0.25,0.25c0.08333,0.08333 0.09883,0.14104 0.25,0.25c0.0956,0.06891 0.19107,0.10774 0.25,0.16666c0.05892,0.05892 0.16667,0.08333 0.41666,0.16666c0.25,0.08333 0.423,0.13478 0.49999,0.16666c0.10888,0.0451 0.10774,0.10774 0.16666,0.16666c0.05893,0.05893 0.12156,0.05779 0.16666,0.16667c0.03189,0.07699 0.08333,0.08333 0.16666,0.16666c0.08333,0.08333 0.16667,0.08333 0.16667,0.16666c0,0.08333 0.05144,0.08968 0.08333,0.16666c0.0451,0.10888 0.10774,0.19107 0.16666,0.25c0.05892,0.05892 0.14112,0.12156 0.25,0.16666c0.07699,0.03189 0.10774,0.02441 0.16666,0.08333c0.05892,0.05892 0.05144,0.08968 0.08333,0.16667c0.0451,0.10888 0.10774,0.10774 0.16666,0.16666c0.05892,0.05892 0.10774,0.02441 0.16666,0.08333c0.05892,0.05892 0.02441,0.10774 0.08333,0.16666c0.05893,0.05893 0.11522,0.08968 0.08333,0.16666c-0.0451,0.10888 -0.17301,0.13478 -0.25,0.16666c-0.10888,0.0451 -0.10774,0.10774 -0.16666,0.16666c-0.05892,0.05892 -0.19107,0.02441 -0.25,0.08333c-0.05892,0.05892 -0.05779,0.2049 -0.16666,0.25c-0.07699,0.03189 -0.05779,0.12157 -0.16666,0.16667c-0.07699,0.03189 -0.10774,0.02441 -0.16666,0.08333c-0.05892,0.05892 -0.05779,0.12156 -0.16666,0.16666c-0.07699,0.03189 -0.10774,0.02441 -0.16667,0.08333c-0.05892,0.05892 -0.02441,0.19107 -0.08333,0.25c-0.05892,0.05892 -0.08333,0.08333 -0.16666,0.16666c-0.08333,0.08333 -0.10774,0.10774 -0.16666,0.16666c-0.05892,0.05892 -0.02441,0.10774 -0.08333,0.16666c-0.05892,0.05892 -0.10774,0.02441 -0.16666,0.08333c-0.05893,0.05893 -0.02441,0.10774 -0.08333,0.16667c-0.05892,0.05892 -0.08333,0.08333 -0.16666,0.16666c-0.08333,0.08333 -0.14112,0.2049 -0.25,0.25c-0.07699,0.03189 -0.27441,0.10774 -0.33333,0.16666c-0.05892,0.05892 -0.02441,0.10774 -0.08333,0.16666c-0.05892,0.05892 -0.10774,0.02441 -0.16666,0.08333c-0.05892,0.05892 -0.02441,0.10774 -0.08333,0.16666c-0.05892,0.05892 -0.10774,0.02441 -0.16666,0.08333c-0.05892,0.05892 -0.08968,0.11522 -0.16666,0.08333c-0.10888,-0.0451 -0.02441,-0.19107 -0.08333,-0.25c-0.05892,-0.05892 -0.12156,-0.05779 -0.16667,-0.16666c-0.03189,-0.07699 -0.05144,-0.08968 -0.08333,-0.16666c-0.0451,-0.10888 -0.19107,-0.19107 -0.25,-0.25c-0.05892,-0.05892 -0.08333,-0.08333 -0.16667,-0.16666c-0.08333,-0.08333 -0.13477,-0.08968 -0.16666,-0.16666c-0.0451,-0.10888 -0.2655,-0.05771 -0.41666,-0.16667c-0.0956,-0.06891 -0.10774,-0.10774 -0.16667,-0.16666c-0.05892,-0.05892 -0.10774,-0.02441 -0.16666,-0.08333c-0.05892,-0.05892 -0.08333,-0.16666 -0.08333,-0.25c0,-0.08333 0.08333,-0.16666 0.16666,-0.16666c0.08333,0 0.19107,-0.05892 0.25,0c0.05892,0.05892 0.16666,0.16666 0.25,0.25c0.08333,0.08333 0.22445,0.2049 0.33333,0.25c0.07699,0.03189 0.16889,0.06419 0.25,0.08333c0.18135,0.04281 0.25,0.08333 0.33333,0.08333c0.08333,0 0.16666,0 0.25,0c0.16666,0 0.33333,0 0.49999,0c0.08333,0 0.16666,-0.08333 0.16666,-0.16666c0,-0.08333 0.08333,-0.16666 0.08333,-0.25c0,-0.08333 0.05892,-0.19107 0,-0.25c-0.05892,-0.05892 -0.25,-0.08333 -0.33333,-0.16666c-0.08333,-0.08333 -0.22445,-0.12156 -0.33333,-0.16666c-0.07699,-0.03189 -0.17301,-0.05144 -0.25,-0.08333c-0.10888,-0.0451 -0.25,-0.25 -0.33333,-0.33333c-0.08333,-0.08333 -0.30892,-0.19107 -0.25,-0.25c0.05892,-0.05892 0.33458,-0.02036 0.49999,0c0.34101,0.04198 0.66666,0.08333 0.74999,0.08333c0.08333,0 0.16889,-0.01915 0.25,0c0.18135,0.04281 0.25,0.08333 0.41666,0.08333c0.08333,0 0.25107,-0.01335 0.33333,0c0.26012,0.04221 0.54503,0.24554 0.58332,0.08333c0.04281,-0.18135 -0.24451,-0.17869 -0.41666,-0.25c-0.24346,-0.10085 -0.46548,-0.13215 -0.58332,-0.25c-0.05892,-0.05892 -0.02441,-0.10774 -0.08333,-0.16666c-0.05892,-0.05892 -0.13478,-0.08968 -0.16667,-0.16666c-0.0451,-0.10888 -0.34796,-0.25815 -0.25,-0.41666c0.08762,-0.14177 0.41889,-0.01915 0.49999,0c0.18135,0.04281 0.33333,0.08333 0.41666,0.08333c0.08333,0 0.08333,-0.08333 0,-0.33333l-0.25,-0.33333l-0.16666,-0.16666l-0.08333,-0.16666" id="svg_9" stroke="#000" fill="none"/>
  <path d="m17.91659,17.58292c0,0.08333 -0.05744,0.25668 0,0.49999c0.04281,0.18135 0.16443,0.26914 0.08333,0.25c-0.18135,-0.04281 -0.60916,-0.19479 -0.83332,-0.33333c-0.10025,-0.06196 -0.16666,-0.08333 -0.16666,0c0,0.16666 0.26566,0.58549 0.66666,0.83332c0.22416,0.13854 0.35774,0.10774 0.41666,0.16666c0.05892,0.05892 0.14112,0.12156 0.25,0.16666c0.07699,0.03189 0.25,0.08333 0.33333,0.08333c0.16667,0 0.27441,-0.05892 0.33333,0c0.05892,0.05892 0.08333,0.08333 0.08333,0.16666c0,0.08333 -0.18217,0.14104 -0.33333,0.25c-0.0956,0.06891 -0.16666,0.16666 -0.25,0.16666c-0.08333,0 -0.08333,0.08333 -0.16666,0.08333c-0.08333,0 -0.08968,0.05144 -0.16666,0.08333c-0.10888,0.0451 -0.16666,0.16667 -0.25,0.25c-0.08333,0.08333 -0.16666,0.16666 -0.25,0.25c-0.08333,0.08333 -0.16666,0.16666 -0.25,0.25c-0.08333,0.08333 -0.10774,0.10774 -0.16666,0.16666c-0.05892,0.05892 -0.16666,0 -0.25,0c-0.08333,0 -0.16666,0 -0.33333,0c-0.08333,0 -0.16666,0 -0.25,0c-0.08333,0 -0.08556,-0.06419 -0.16667,-0.08333c-0.18135,-0.04281 -0.2655,-0.14104 -0.41666,-0.25c-0.0956,-0.06891 -0.16667,-0.08333 -0.16667,0.08333c0,0.08333 0.03823,0.14112 0.08333,0.25c0.03189,0.07699 0.16667,0.25 0.25,0.33333c0.08333,0.08333 0.14104,0.18217 0.25,0.33333c0.06891,0.0956 0.18217,0.14104 0.33333,0.25c0.0956,0.06891 0.19107,0.02441 0.25,0.08333c0.05892,0.05892 0.08968,0.11522 0.16666,0.08333c0.10888,-0.0451 0.08333,-0.16666 0.08333,-0.25c0,-0.08333 0,-0.16666 -0.08333,-0.25c-0.16666,-0.16667 -0.37984,-0.3766 -0.66666,-0.58333c-0.30233,-0.21791 -0.47658,-0.35918 -0.74999,-0.58332c-0.23236,-0.19049 -0.44141,-0.46782 -0.66666,-0.66666c-0.13969,-0.12332 -0.19479,-0.27583 -0.33333,-0.49999c-0.18587,-0.30075 -0.4339,-0.48438 -0.58333,-0.66666c-0.19049,-0.23236 -0.43573,-0.56079 -0.83332,-0.91665c-0.26344,-0.23579 -0.51855,-0.47699 -0.83332,-0.74999c-0.26709,-0.23165 -0.44551,-0.47545 -0.58333,-0.66666c-0.10895,-0.15117 -0.2049,-0.22445 -0.25,-0.33333c-0.03189,-0.07699 -0.06419,-0.08556 -0.08333,-0.16666c-0.04281,-0.18135 -0.08333,-0.25 -0.16666,-0.33333c-0.08333,-0.08333 -0.16666,-0.16666 -0.25,-0.33333c-0.08333,-0.16666 -0.16666,-0.25 -0.25,-0.33333c-0.16666,-0.16666 -0.19141,-0.38448 -0.41666,-0.58333c-0.13969,-0.12332 -0.30778,-0.28823 -0.41666,-0.33333c-0.07699,-0.03189 -0.08967,-0.05144 -0.16666,-0.08333c-0.10888,-0.0451 -0.16667,-0.16666 -0.25,-0.25c-0.16666,-0.16666 -0.33333,-0.25 -0.41666,-0.33333c-0.08333,-0.08333 0.03896,0.13688 0.83332,0.74999c0.23785,0.18358 0.84514,0.64678 1.41665,0.99999c0.51117,0.31592 0.68108,0.48772 0.74999,0.58333c0.10895,0.15116 0.39874,0.51894 0.74999,0.83332c0.39759,0.35586 0.66666,0.58332 0.83332,0.74999c0.25,0.25 0.50653,0.39915 0.74999,0.49999c0.17215,0.07131 0.34048,0.11837 0.49999,0.16666c0.28757,0.08707 0.57861,0.26231 0.99999,0.41666c0.49488,0.18128 0.68216,0.22437 0.83332,0.33333c0.0956,0.06891 0.22559,0.10774 0.16666,0.16666c-0.05892,0.05892 -0.99999,-0.41666 -1.41665,-0.58332c-0.41666,-0.16666 -1.29939,-0.42552 -1.83331,-0.83332c-0.09366,-0.07153 -0.24365,-0.21811 -0.16666,-0.25c0.10888,-0.0451 0.33605,0.16265 0.58333,0.33333c0.58997,0.4072 1.30394,1.07211 2.16664,1.33331c0.07976,0.02415 0.17215,0.07131 0,0c-0.73038,-0.30253 -1.59733,-0.54873 -2.24997,-0.83332c-0.34161,-0.14896 -0.42562,-0.15719 -0.25,0c0.39759,0.35586 1.17609,0.73624 1.66664,1.08332c0.34014,0.24065 0.33333,0.33333 0.41666,0.33333c0.08333,0 -0.42355,-0.30787 -1.08332,-0.49999c-0.50602,-0.14735 -0.70618,-0.23755 -0.74999,-0.16666c-0.09796,0.15851 0.5869,0.49381 1.16665,0.83332c0.4193,0.24555 0.74999,0.41666 0.74999,0.33333c0,-0.08333 -0.48479,-0.20321 -1.24998,-0.49999c-0.73706,-0.28587 -1.24998,-0.58333 -1.33331,-0.49999c-0.08333,0.08333 0.58804,0.40367 0.83332,0.49999c0.93723,0.36804 1.14103,0.65116 1.24998,0.49999c0.06891,-0.0956 -0.92442,-0.64971 -1.66664,-0.99999c-1.1796,-0.55668 -1.92393,-0.89948 -2.3333,-1.08332c-0.16998,-0.07633 -0.23044,-0.15398 -0.16666,0c0.0902,0.21776 0.30323,0.44869 0.83332,0.91665c0.71229,0.6288 1.1411,0.95489 1.24998,0.99999c0.07699,0.03189 0.16666,0 0.16666,-0.16666c0,-0.33333 -0.22798,-0.68628 -0.74999,-1.24998c-0.24022,-0.25941 -0.39711,-0.32064 -0.33333,-0.16666c0.1353,0.32664 0.48593,0.51837 0.91665,0.83332c0.48507,0.35469 0.81863,0.62385 0.99999,0.66666c0.0811,0.01915 0.10774,0.02441 0.16667,0.08333c0.05892,0.05892 0.05144,0.17301 0.08333,0.25c0.0451,0.10888 0.16666,0.08333 0.25,0.08333c0.16666,0 0.48079,-0.11592 0.66666,-0.41666c0.13854,-0.22416 0.28965,-0.49465 0.25,-0.99999c-0.04123,-0.52542 -0.47856,-1.01591 -0.91665,-1.58331c-0.39775,-0.51516 -1.16665,-1.24998 -1.41665,-1.49998c-0.16666,-0.16666 -0.12852,-0.1284 0.66666,0.58332c0.26344,0.23579 0.96897,0.81161 1.91664,1.24998c1.05344,0.48729 1.91046,0.70812 2.3333,0.74999c0.08293,0.00821 -0.1732,-0.06582 -0.41666,-0.16666c-0.68861,-0.28523 -1.86427,-0.77093 -2.5833,-1.16665c-0.52645,-0.28974 -0.8547,-0.48308 -0.91665,-0.58333c-0.13854,-0.22416 -0.17869,-0.41117 -0.25,-0.58332c-0.10084,-0.24346 -0.11146,-0.4425 -0.25,-0.66666c-0.12391,-0.2005 -0.2744,-0.2744 -0.33333,-0.33333c-0.05893,-0.05893 -0.05779,-0.12157 -0.16666,-0.16667c-0.07699,-0.03189 -0.16666,-0.08333 -0.08333,-0.08333c0.08333,0 0.40197,0.29052 0.58333,0.33333c0.0811,0.01915 -0.05211,-0.20113 -0.41666,-0.49999c-0.46472,-0.38097 -0.82089,-0.68416 -1.16665,-0.91665c-0.40323,-0.27113 -0.67216,-0.40647 -0.83332,-0.49999c-0.25987,-0.15081 -0.4838,-0.3707 -0.83332,-0.49999c-0.32225,-0.11921 -0.66666,-0.25 -0.99999,-0.33333l-0.25,-0.08333l-0.08333,0l0,0.08333" id="svg_10" stroke="#000" fill="none"/>
  <path d="m6.33342,12.33299c-0.08333,0 -0.16666,0 -0.25,0c-0.08333,0 -0.18569,0.09567 -0.41666,0c-0.10888,-0.0451 -0.25668,-0.02589 -0.49999,-0.08333c-0.18135,-0.04281 -0.25,-0.08333 -0.33333,-0.08333c-0.08333,0 -0.14112,0.12156 -0.25,0.16666c-0.07699,0.03189 0.08333,0 0.25,0c0.08333,0 0.25,-0.08333 0.58333,-0.25c0.16666,-0.08333 0.4201,-0.0706 0.74999,-0.16667c0.25301,-0.07368 0.40197,-0.12385 0.58333,-0.16666c0.0811,-0.01915 0.14112,-0.12156 0.25,-0.16666c0.07699,-0.03189 0.1843,-0.05951 0.41666,-0.25c0.18228,-0.14943 0.33333,-0.25 0.41666,-0.33333c0.16666,-0.16666 0.23772,-0.26442 0.33333,-0.33333c0.15116,-0.10895 0.25,-0.16667 0.33333,-0.25c0.08333,-0.08333 0.15886,-0.17528 0.25,-0.25c0.23236,-0.19049 0.41666,-0.25 0.58333,-0.41666c0.08333,-0.08333 0.16667,-0.16666 0.25,-0.25c0.08333,-0.08333 0.11824,-0.11824 0.25,-0.25c0.13176,-0.13176 0.2744,-0.10774 0.33333,-0.16666c0.05892,-0.05892 -0.08333,-0.08333 -0.16666,-0.08333c-0.16666,0 -0.32552,0.00862 -0.41666,0.08333c-0.23236,0.19049 -0.43216,0.14104 -0.58333,0.25c-0.0956,0.06891 -0.16666,0.16666 -0.25,0.25c-0.08333,0.08333 -0.25634,0.13477 -0.33333,0.16666c-0.10888,0.0451 -0.24219,0.25861 -0.33333,0.33333c-0.23236,0.19049 -0.51723,0.40105 -0.66666,0.58333c-0.19049,0.23236 -0.36823,0.45156 -0.49999,0.58332c-0.13176,0.13176 -0.2744,0.10774 -0.33333,0.16667c-0.05892,0.05892 -0.02441,0.10774 -0.08333,0.16666c-0.05892,0.05892 -0.16666,0 -0.16666,-0.08333c0,-0.08333 0.17784,-0.48648 0.58332,-0.83332c0.51055,-0.43671 1.59275,-0.98624 2.0833,-1.33331c0.34014,-0.24065 0.58333,-0.33333 0.74999,-0.49999c0.08333,-0.08333 0.16666,-0.08333 0.25,-0.16666c0.08333,-0.08333 0.19107,-0.10774 0.25,-0.16667c0.05892,-0.05892 0,-0.16666 -0.08333,-0.16666c-0.08333,0 -0.16666,0 -0.25,0c-0.08333,0 -0.19107,-0.05892 -0.25,0c-0.05892,0.05892 -0.05779,0.12156 -0.16666,0.16666c-0.07699,0.03189 -0.16667,0.08333 -0.25,0.16667c-0.08333,0.08333 -0.2049,0.14112 -0.25,0.25c-0.03189,0.07699 -0.05144,0.17301 -0.08333,0.25c-0.0451,0.10888 -0.10057,0.15105 -0.25,0.33333c-0.19049,0.23236 -0.36684,0.54529 -0.74999,0.91665c-0.29919,0.28999 -0.58332,0.41666 -0.74999,0.58333c-0.25,0.25 -0.30778,0.37156 -0.41666,0.41666c-0.07699,0.03189 -0.08333,0.08333 -0.16666,0.16666c-0.08333,0.08333 -0.23531,0.20718 -0.41666,0.25c-0.0811,0.01915 -0.28823,0.05779 -0.33333,0.16667c-0.03189,0.07699 -0.08333,0.08333 -0.16666,0.16666c-0.16666,0.16666 -0.28823,0.14112 -0.33333,0.25c-0.03189,0.07699 -0.12157,0.05779 -0.16666,0.16666c-0.06378,0.15398 -0.05744,0.34002 0,0.58333c0.04281,0.18135 0.16666,0.41666 0.25,0.49999c0.08333,0.08333 0.08968,0.13477 0.16666,0.16666c0.10888,0.0451 0.16666,0.08333 0.25,0.08333c0.08333,0 0.16889,-0.01915 0.25,0c0.18135,0.04281 0.25,0.08333 0.41666,0.16667l0.16666,0l0.16666,0" id="svg_11" stroke="#000" fill="none"/>
  <path d="m7.16674,13.41631c0,-0.08333 0.09776,-0.01227 0.16666,0.08333c0.32686,0.45349 0.58332,0.99999 1.16665,1.49998c0.58333,0.49999 1.06584,0.91584 1.66664,0.99999c0.41263,0.05779 0.76268,0.06378 0.91665,0c0.10888,-0.0451 0.23204,-0.30612 -0.08333,-0.91665c-0.3526,-0.6826 -1.3986,-1.28261 -2.5833,-1.91664c-0.65715,-0.3517 -0.99999,-0.49999 -1.08332,-0.58333c-0.08333,-0.08333 0.01098,-0.1025 0.74999,0.33333c0.67716,0.39936 1.4774,0.87715 2.41663,1.33331c0.57087,0.27726 0.86814,0.3257 0.83332,0.25c-0.32103,-0.698 -0.93081,-0.72937 -1.66664,-1.24998c-0.68027,-0.4813 -1.34018,-0.78223 -1.24998,-0.99999c0.03189,-0.07699 1.67569,0.89099 2.41663,1.16665c1.43589,0.53422 2.89375,0.85899 3.41662,1.16665c0.10157,0.05976 0.19302,-0.02863 -0.16666,-0.33333c-1.64091,-1.39006 -2.93901,-2.05126 -3.66662,-2.5833c-0.43072,-0.31495 -0.59148,-0.65203 -0.74999,-0.74999c-0.07089,-0.04381 -0.10558,0.08636 -0.08333,0.16666c0.1297,0.46828 0.58333,0.83332 0.99999,1.24998c0.49999,0.49999 0.83332,0.74999 0.99999,0.91665c0.08333,0.08333 0.13477,0.17301 0.16666,0.25c0.0451,0.10888 0.18216,0.05771 0.33333,0.16666c0.0956,0.06891 0.1843,0.14284 0.41666,0.33333c0.45569,0.37358 0.98593,0.93503 1.41665,1.24998c0.24254,0.17735 0.35774,0.19107 0.41666,0.25c0.05892,0.05892 0.05951,0.1843 0.25,0.41666c0.22415,0.27341 0.54881,0.38214 0.66666,0.49999c0.05892,0.05892 0.08333,0.08333 0.16667,0.08333c0.08333,0 0.10968,0.08761 0.08333,0.16666c-0.13176,0.39528 -0.68605,0.81109 -1.16665,1.24998c-0.34809,0.31788 -0.4617,0.58778 -0.49999,0.74999c-0.04281,0.18135 -0.08333,0.25 -0.08333,0.41666c0,0.08333 -0.03189,0.17301 0,0.25c0.0451,0.10888 0.05144,0.17301 0.08333,0.25c0.0451,0.10888 0.05892,0.22559 0,0.16666c-0.05892,-0.05892 0,-0.16666 0,-0.25c0,-0.08333 -0.02441,-0.10774 -0.08333,-0.16666c-0.05892,-0.05892 -0.10774,-0.02441 -0.16666,-0.08333c-0.05892,-0.05892 -0.17935,-0.01955 -0.33333,-0.08333c-0.21776,-0.0902 -0.40197,-0.29052 -0.58332,-0.33333c-0.0811,-0.01915 -0.17216,-0.07314 -0.33333,-0.16666c-0.25987,-0.15081 -0.39112,-0.28823 -0.49999,-0.33333c-0.15398,-0.06378 -0.17024,-0.05918 -0.25,-0.08333c-0.28757,-0.08707 -0.35774,-0.2744 -0.41666,-0.33333c-0.05892,-0.05892 -0.08333,-0.08333 -0.16666,-0.08333c-0.08333,0 -0.08968,-0.05144 -0.16666,-0.08333c-0.10888,-0.0451 -0.10774,-0.10774 -0.16666,-0.16667c-0.05893,-0.05893 -0.08968,-0.05144 -0.16667,-0.08333c-0.10888,-0.0451 -0.16666,-0.16666 -0.25,-0.25c-0.08333,-0.08333 -0.19107,-0.10774 -0.25,-0.16666c-0.05892,-0.05892 -0.05144,-0.08968 -0.08333,-0.16666c-0.0451,-0.10888 -0.16666,-0.08333 -0.25,-0.16666c-0.08333,-0.08333 -0.16666,-0.16666 -0.25,-0.25c-0.08333,-0.08333 -0.19107,-0.10774 -0.25,-0.16666c-0.05893,-0.05893 -0.08333,-0.08333 -0.16666,-0.16667c-0.08333,-0.08333 -0.19107,-0.10774 -0.25,-0.16666c-0.05893,-0.05893 -0.03952,-0.09578 -0.08333,-0.16667c-0.09796,-0.15851 -0.25,-0.16666 -0.33333,-0.25c-0.08333,-0.08333 -0.21811,-0.17301 -0.25,-0.25c-0.0451,-0.10888 -0.16667,-0.08333 -0.25,-0.16667c-0.08333,-0.08333 -0.16666,-0.16666 -0.25,-0.25c-0.16666,-0.16666 -0.21811,-0.17301 -0.25,-0.25c-0.0451,-0.10888 -0.10774,-0.10774 -0.16666,-0.16667c-0.05893,-0.05892 -0.16666,-0.08333 -0.25,-0.16666c-0.08333,-0.08333 -0.19107,-0.10774 -0.25,-0.16666c-0.05892,-0.05892 -0.02441,-0.10774 -0.08333,-0.16666c-0.05893,-0.05892 -0.10774,-0.02441 -0.16666,-0.08333c-0.05892,-0.05892 -0.08333,-0.08333 -0.25,-0.25c-0.08333,-0.08333 -0.16666,-0.16666 -0.25,-0.25c-0.08333,-0.08333 -0.14752,-0.16889 -0.16666,-0.25c-0.04281,-0.18135 -0.22438,-0.34883 -0.33333,-0.49999c-0.06891,-0.0956 0,-0.08333 0.08333,-0.08333c0.08333,0 0.16666,0 0.25,0c0.08333,0 0.16666,0.08333 0.25,0.08333c0.08333,0 0.25,0.08333 0.49999,0.16666c0.25,0.08333 0.33967,0.13477 0.41666,0.16666c0.10888,0.0451 0.26764,0.14284 0.49999,0.33333c0.18228,0.14943 0.36823,0.2849 0.49999,0.41666c0.13176,0.13176 0.25,0.25 0.33333,0.33333c0.08333,0.08333 0.17301,0.13477 0.25,0.16666c0.21776,0.0902 0.2744,0.19107 0.33333,0.25c0.05892,0.05892 0.08333,0.08333 0.16666,0.16667c0.08333,0.08333 0.19107,0.10774 0.25,0.16666c0.05892,0.05892 0.08333,0.16666 0.16667,0.25c0.08333,0.08333 0.2655,0.22438 0.41666,0.33333c0.0956,0.06891 0.10774,0.19107 0.16666,0.25c0.05893,0.05893 0.16667,0.08333 0.25,0.16666c0.16666,0.16667 0.30778,0.28823 0.41666,0.33333c0.07699,0.03189 0.08968,0.05144 0.16666,0.08333c0.10888,0.0451 0.10774,0.10774 0.16666,0.16667c0.05892,0.05892 0.16882,0.05663 0.33333,0.08333c0.26012,0.04221 0.33333,0.16666 0.41666,0.16666c0.08333,0 0.17301,0.03189 0.25,0c0.10888,-0.0451 0.12385,-0.15198 0.16666,-0.33333c0.01915,-0.0811 0.08333,-0.25 0.08333,-0.33333c0,-0.08333 -0.03952,-0.17911 -0.08333,-0.25c-0.09796,-0.15851 -0.2555,-0.15647 -0.41666,-0.25c-0.25987,-0.15081 -0.32784,-0.17869 -0.49999,-0.25c-0.24346,-0.10084 -0.33333,-0.16666 -0.49999,-0.25c-0.16667,-0.08333 -0.33967,-0.13477 -0.41666,-0.16666c-0.10888,-0.0451 -0.17301,-0.05144 -0.25,-0.08333c-0.10888,-0.0451 -0.16667,-0.08333 -0.16667,0.08333c0,0.08333 -0.09567,0.35236 0,0.58333c0.0451,0.10888 0.12157,0.22445 0.16667,0.33333c0.03189,0.07699 0.08333,0.16667 0.16666,0.25c0.08333,0.08333 0.16666,0.16666 0.25,0.25c0.16667,0.16667 0.32106,0.26442 0.41666,0.33333c0.15116,0.10895 0.19107,0.10774 0.25,0.16666c0.17677,0.17677 0.49999,0 0.74999,-0.08333c0.49999,-0.16666 1.05091,-0.32734 1.24998,-0.49999c0.14077,-0.12209 0.13477,-0.25634 0.16666,-0.33333c0.0451,-0.10888 0.08333,-0.25 0.08333,-0.33333c0,-0.08333 0.06378,-0.17935 0,-0.33333c-0.0451,-0.10888 -0.10774,-0.10774 -0.16667,-0.16666c-0.05892,-0.05892 -0.14112,-0.12156 -0.25,-0.16666c-0.07699,-0.03189 -0.23772,-0.09776 -0.33333,-0.16666c-0.15117,-0.10895 -0.4232,-0.23248 -0.66666,-0.33333c-0.17215,-0.07131 -0.25634,-0.13477 -0.33333,-0.16666c-0.10888,-0.0451 -0.15886,-0.09195 -0.25,-0.16666c-0.23236,-0.19049 -0.41666,-0.25 -0.58333,-0.33333c-0.16666,-0.08333 -0.25634,-0.13477 -0.33333,-0.16666c-0.10888,-0.0451 -0.19107,-0.10774 -0.25,-0.16666c-0.05893,-0.05893 -0.15439,-0.18109 -0.25,-0.25c-0.15116,-0.10895 -0.33333,-0.25 -0.33333,-0.16666c0,0.08333 0.22438,0.0155 0.33333,0.16666c0.13782,0.19121 0.39957,0.35168 0.66666,0.58333c0.31477,0.273 0.76763,0.47617 0.99999,0.66666c0.18228,0.14943 0.32106,0.18109 0.41666,0.25c0.15116,0.10895 0.2744,0.10774 0.33333,0.16667c0.05892,0.05892 0.08333,0.08333 0.16666,0.16666c0.16667,0.16666 0.33333,0.25 0.41666,0.33333c0.08333,0.08333 0,0 -0.25,-0.25c-0.16667,-0.16666 -0.78099,-0.53208 -1.08332,-0.74999c-0.19121,-0.13782 -0.3603,-0.37668 -0.49999,-0.49999c-0.22525,-0.19884 -0.39387,-0.52446 -0.74999,-0.83332c-0.31477,-0.273 -0.71317,-0.54327 -0.99999,-0.74999c-0.15117,-0.10895 -0.25634,-0.21811 -0.33333,-0.25c-0.10888,-0.0451 -0.10774,-0.10774 -0.16666,-0.16666c-0.05892,-0.05892 -0.08333,-0.16666 -0.08333,-0.25c0,-0.08333 -0.08333,-0.16666 -0.08333,-0.25c0,-0.08333 0.01475,-0.1121 0.41666,-0.25c0.3525,-0.12095 0.69249,-0.19479 0.91665,-0.33333c0.10025,-0.06196 0.13477,-0.08968 0.16666,-0.16667c0.1353,-0.32664 0.61699,-0.53429 0.99999,-0.83332c0.27867,-0.21758 0.49999,-0.41666 0.49999,-0.49999c0,-0.08333 -0.09048,-0.13163 -0.25,-0.08333c-0.28757,0.08707 -0.67662,0.31433 -1.16665,0.58333c-0.42595,0.23382 -0.64111,0.45489 -0.74999,0.49999c-0.07699,0.03189 -0.14226,0.10774 -0.08333,0.16666c0.11785,0.11785 0.33333,0.08333 0.66666,0.08333c0.49999,0 0.9314,0.05457 1.33331,-0.08333c0.17625,-0.06047 0.29052,-0.09802 0.33333,0.08333c0.05744,0.24331 0.04504,0.42112 0.08333,0.58333c0.04281,0.18135 0.08333,0.25 0.08333,0.41666c0,0.08333 -0.05892,0.19107 0,0.25c0.05892,0.05892 0.08333,0.08333 0.08333,0.16666c0,0.08333 0,0.16667 0,0.25c0,0.16666 0,0.25 0,0.33333c0,0.08333 -0.01335,0.16559 0,0.08333c0.04221,-0.26012 0.09903,-0.41197 0.16666,-0.66666c0.10906,-0.41068 0.10288,-0.67934 0.16666,-0.83332c0.0451,-0.10888 0.08333,-0.16666 0.08333,-0.25l0,-0.08333l0,-0.08333" id="svg_12" stroke="#000" fill="none"/>
  <path d="m8.00006,12.24966c-0.08333,-0.08333 -0.16666,-0.16666 -0.16666,-0.25c0,-0.08333 0,-0.16667 0,-0.25c0,-0.08333 -0.07346,-0.06748 -0.33333,0.08333c-0.16116,0.09353 -0.6024,0.39413 -0.99999,0.74999c-0.35125,0.31439 -0.49999,0.49999 -0.58333,0.58333c-0.08333,0.08333 -0.08333,0.16667 0,0.16667c0.08333,0 0.25,0 0.41666,0c0.25,0 0.33333,0 0.41666,0c0.08333,0 0.17112,0.04504 0.33333,0.08333c0.18135,0.04281 0.22445,0.12156 0.33333,0.16666c0.07699,0.03189 0.22445,0.03823 0.33333,0.08333c0.07699,0.03189 0.18216,-0.02562 0.33333,0.08333c0.0956,0.06891 0.33967,0.13477 0.41666,0.16666c0.10888,0.0451 0.14112,0.12157 0.25,0.16667c0.07699,0.03189 0.16667,0 0.25,0c0.08333,0 0.25,0 0.49999,-0.16667c0.25,-0.16666 0.60104,-0.38926 0.99999,-0.66666c0.43809,-0.30462 0.66666,-0.58332 0.74999,-0.74999c0.08333,-0.16666 0.16666,-0.41666 0.16666,-0.58333c0,-0.16666 0.01335,-0.41774 0,-0.49999c-0.04221,-0.26012 -0.16666,-0.33333 -0.33333,-0.49999c-0.08333,-0.08333 -0.08333,-0.16666 -0.16666,-0.16666c-0.08333,0 -0.16667,0 -0.16667,0.08333c0,0.16666 0.14696,0.75771 0.41666,1.41665c0.31089,0.75957 0.63876,1.5922 0.91665,2.41663c0.22742,0.67469 0.54111,1.15653 0.58333,1.41665c0.01335,0.08226 0.10774,0.10774 0.16667,0.16666c0.05893,0.05893 0.09776,0.15439 0.16666,0.25c0.10895,0.15116 0.13079,0.26108 0.25,0.58332c0.1293,0.34952 0.23727,0.75343 0.33333,1.08332c0.07368,0.25301 0.2049,0.39111 0.25,0.49999c0.03189,0.07699 0.02441,0.10774 0.08333,0.16666c0.05892,0.05892 0.06772,0.26723 0.25,0.41666c0.23236,0.19049 0.48987,0.29112 0.74999,0.33333c0.16451,0.0267 0.25,0 0.33333,0c0.08333,0 0.16666,0 0.16666,-0.08333l0,-0.08333l0,-0.08333" id="svg_13" stroke="#000" fill="none"/>
 </g>

</svg>