<svg width="24.999999999999996" height="24.999999999999996" xmlns="http://www.w3.org/2000/svg" version="1.0" preserveAspectRatio="xMidYMid meet">
 <g id="Layer_1">
  <title>Layer 1</title>
  <path id="svg_14" d="m3.75012,19.42893l8.16516,-6.68039l-8.16516,-6.68044l4.6668,-3.81779l12.83295,10.49823l-12.83295,10.50148" stroke="#000" fill="#fff"/>
  <line id="svg_15" y2="22.91618" x2="8.58339" y1="19.33289" x1="4.41678" stroke="#000" fill="none"/>
  <path id="svg_16" d="m13.39914,15.94253l0.025,-0.55556l0.1,-0.13889l-0.125,0.69445l-0.62499,0l0,-4.16661l0.74999,0l0,3.47216" stroke="#000" fill="#fff"/>
  <path id="svg_17" d="m14.71023,17.0275l0.01111,-0.66667l0.04444,-0.16667l-0.05556,0.83334l-0.27777,0l0,-4.99993l0.33333,0l0,4.16659" stroke="#000" fill="#fff"/>
  <ellipse ry="0.49999" rx="0.83332" id="svg_18" cy="18.99956" cx="5.83343" stroke="#000" fill="#fff"/>
  <ellipse ry="0.66666" rx="0.125" id="svg_19" cy="21.99952" cx="8.79172" stroke="#000" fill="#fff"/>
  <line id="svg_20" y2="13.24964" x2="12.75" y1="18.66624" x1="6.16675" stroke="#000" fill="none"/>
  <line id="svg_21" y2="10.24969" x2="17.58326" y1="20.16621" x1="6.33342" stroke="#000" fill="none"/>
  <line id="svg_22" y2="21.99952" x2="8.66672" y1="12.16633" x1="20.41656" stroke="#000" fill="none"/>
  <line id="svg_23" y2="21.99952" x2="7.75007" y1="11.66633" x1="19.58324" stroke="#000" fill="none"/>
  <line id="svg_24" y2="21.49953" x2="7.16674" y1="11.08301" x1="19.08324" stroke="#000" fill="none"/>
  <line id="svg_25" y2="10.74968" x2="18.24992" y1="20.83287" x1="6.58342" stroke="#000" fill="none"/>
  <line id="svg_26" y2="14.08297" x2="12.5" y1="20.24955" x1="6.16675" stroke="#000" fill="none"/>
  <line id="svg_27" y2="12.49965" x2="12.83333" y1="5.66642" x1="4.58344" stroke="#000" fill="none"/>
  <line id="svg_28" y2="12.08299" x2="13.83331" y1="5.08309" x1="5.33343" stroke="#000" fill="none"/>
  <line id="svg_29" y2="11.583" x2="15.58329" y1="4.24977" x1="6.25009" stroke="#000" fill="none"/>
  <line id="svg_30" y2="11.833" x2="14.74997" y1="4.83309" x1="6.00009" stroke="#000" fill="none"/>
  <line id="svg_31" y2="11.49967" x2="16.41661" y1="3.83311" x1="7.3334" stroke="#000" fill="none"/>
  <line id="svg_32" y2="2.91645" x2="7.8334" y1="10.91634" x1="17.08327" stroke="#000" fill="none"/>
  <line id="svg_33" y2="4.5831" x2="9.83337" y1="10.66635" x1="18.08326" stroke="#000" fill="none"/>
  <path d="m8.33339,18.16624c-0.08333,0 -0.16666,0 -0.25,0c-0.16666,0 -0.19107,0.02441 -0.25,0.08333c-0.05892,0.05892 -0.16666,0.08333 -0.25,0.08333c-0.08333,0 -0.08968,0.05144 -0.16666,0.08333c-0.10888,0.0451 -0.19107,0.10774 -0.25,0.16666c-0.05892,0.05892 -0.08333,0.16666 -0.08333,0.25l-0.08333,0" id="svg_34" stroke="#000" fill="none"/>
  <path d="m12.25,6.6664c-0.08333,0 -0.24524,-0.00986 -0.58333,-0.16666c-0.57573,-0.26702 -1.05932,-0.58179 -1.49998,-0.66666c-0.08183,-0.01576 -0.20778,0.01012 -0.25,-0.25c-0.01335,-0.08226 0,-0.16666 0,-0.25c0,-0.08333 -0.16666,-0.16666 -0.25,-0.25c-0.08333,-0.08333 -0.19107,-0.10774 -0.25,-0.16666c-0.05892,-0.05892 -0.16666,-0.25 -0.25,-0.33333c-0.16666,-0.16666 -0.19107,-0.19107 -0.25,-0.25c-0.05892,-0.05892 -0.03491,-0.11824 -0.16667,-0.25c-0.13176,-0.13176 -0.34883,-0.22438 -0.49999,-0.33333c-0.0956,-0.06891 -0.05779,-0.2049 -0.16667,-0.25c-0.07699,-0.03189 -0.16666,-0.08333 -0.33333,-0.08333c-0.16666,0 -0.2655,0.05771 -0.41666,0.16666c-0.0956,0.06891 -0.10774,0.19107 -0.16666,0.25c-0.05892,0.05892 -0.08333,0.16666 -0.08333,0.25c0,0.08333 0,0.16666 0,0.25l0,0.08333l0,0.08333l0.08333,0" id="svg_35" stroke="#000" fill="none"/>
 </g>

</svg>